<svg width="32" height="32" viewBox="0 0 32 32" fill="none" xmlns="http://www.w3.org/2000/svg">
<g clip-path="url(#clip0_754_3740)">
<path d="M26.7588 5.54894C26.7217 5.54304 26.6816 5.53824 26.6445 5.53524C19.5977 4.94154 12.4063 4.94154 5.3594 5.53524C5.3213 5.53824 5.2832 5.54304 5.2461 5.54894C2.9063 5.92204 1.001 8.06654 1 10.3321V21.6749C1 23.9395 2.9053 26.086 5.2461 26.4591C5.2832 26.4649 5.3203 26.4688 5.3584 26.4727C12.1737 27.047 19.3162 27.09 26.6416 26.4727C26.6797 26.4688 26.7217 26.4649 26.7588 26.4591C29.0996 26.086 31 23.9395 31 21.6749V10.3311C31 8.02744 29.1387 5.92784 26.7588 5.54894ZM14.1709 23.2422C12.8838 23.2422 12.6797 22.0693 11.7988 22.0693H10.1338C9.2539 22.0693 9.1113 23.2422 7.8271 23.2422C6.7041 23.2422 5.7949 22.2754 5.792 21.0488C5.7949 19.8232 6.7041 18.8418 7.8271 18.8418C9.1113 18.8418 9.2021 19.9629 10.083 19.9629L11.7988 19.9551C12.6797 19.9551 12.8838 18.8535 14.1709 18.8535C15.292 18.8535 16.2021 19.8223 16.2031 21.0479C16.2021 22.2734 15.292 23.2422 14.1709 23.2422ZM28 16H4V11H28V16Z" fill="#8A898E"/>
</g>
<defs>
<clipPath id="clip0_754_3740">
<rect width="32" height="32" fill="white"/>
</clipPath>
</defs>
</svg>
