<svg width="80" height="80" viewBox="0 0 80 80" fill="none" xmlns="http://www.w3.org/2000/svg">
<g id="DIU_PKA0369 1" clip-path="url(#clip0_754_4524)">
<g id="Production">
<path id="Vector" d="M74.2187 16.1962C71.4795 13.794 68.523 11.7237 65.3345 9.98046C63.9452 9.20896 62.0752 9.75571 61.0352 11.2475L36.0057 46.9897L21.311 26.2842C20.266 24.7925 18.3862 24.2357 16.9947 25.0025C13.8182 26.7505 10.852 28.8232 8.12247 31.2182C6.91647 32.2657 6.79922 34.2162 7.85397 35.7152C7.85397 35.7152 27.163 62.9637 29.519 66.25C32.9175 70.9887 39.231 70.7422 42.5 66.25C44.9195 62.9247 74.497 20.6787 74.497 20.6787C75.542 19.187 75.415 17.2437 74.2187 16.1962Z" fill="url(#paint0_linear_754_4524)"/>
</g>
</g>
<defs>
<linearGradient id="paint0_linear_754_4524" x1="7.13428" y1="9.63184" x2="86.5095" y2="40.0468" gradientUnits="userSpaceOnUse">
<stop stop-color="#7318E8"/>
<stop offset="1" stop-color="#E85F63"/>
</linearGradient>
<clipPath id="clip0_754_4524">
<rect width="80" height="80" fill="white"/>
</clipPath>
</defs>
</svg>
