<svg width="25" height="24" viewBox="0 0 25 24" fill="none" xmlns="http://www.w3.org/2000/svg">
<path d="M12.0508 22C17.5736 22 22.0508 17.5228 22.0508 12C22.0508 6.47715 17.5736 2 12.0508 2C6.52793 2 2.05078 6.47715 2.05078 12C2.05078 17.5228 6.52793 22 12.0508 22Z" stroke="#8A898E" stroke-width="2" stroke-linecap="round" stroke-linejoin="round"/>
<path d="M9.14075 9.00002C9.37585 8.33169 9.8399 7.76813 10.4507 7.40915C11.0615 7.05018 11.7796 6.91896 12.4779 7.03873C13.1762 7.15851 13.8096 7.52154 14.2658 8.06355C14.7221 8.60555 14.9718 9.29154 14.9707 10C14.9707 12 11.9707 13 11.9707 13" stroke="#8A898E" stroke-width="2" stroke-linecap="round" stroke-linejoin="round"/>
<path d="M12.0508 17H12.0608" stroke="#8A898E" stroke-width="2" stroke-linecap="round" stroke-linejoin="round"/>
</svg>
