<svg width="56" height="32" viewBox="0 0 56 32" fill="none" xmlns="http://www.w3.org/2000/svg">
<rect width="55.0508" height="32" rx="12" fill="url(#paint0_linear_754_5076)"/>
<path d="M16.3309 15.6613C17.0311 15.6613 17.5645 15.5065 17.9313 15.1967C18.3147 14.8707 18.5064 14.3816 18.5064 13.7295C18.5064 13.11 18.3063 12.6372 17.9063 12.3112C17.5228 11.9688 16.9561 11.7977 16.2059 11.7977C15.9392 11.7977 15.7141 11.8058 15.5308 11.8221C15.3641 11.8221 15.189 11.8384 15.0057 11.871V15.6613H16.3309ZM15.0307 23.5109C14.8473 23.5598 14.5556 23.6087 14.1555 23.6577C13.7721 23.7066 13.3887 23.731 13.0053 23.731C12.6218 23.731 12.2801 23.6984 11.9801 23.6332C11.6967 23.5843 11.4549 23.4865 11.2549 23.3398C11.0549 23.193 10.9048 22.9893 10.8048 22.7284C10.7048 22.4676 10.6548 22.1252 10.6548 21.7014V10.1837C10.6548 9.84136 10.7465 9.58053 10.9298 9.4012C11.1299 9.20557 11.3966 9.0507 11.73 8.93658C12.2968 8.74095 12.9386 8.60238 13.6554 8.52087C14.3889 8.42305 15.1224 8.37415 15.8558 8.37415C18.1563 8.37415 19.915 8.85507 21.1319 9.81691C22.3488 10.7788 22.9573 12.0829 22.9573 13.7295C22.9573 14.5283 22.8239 15.2538 22.5572 15.9059C22.3071 16.5417 21.9237 17.0959 21.407 17.5687C20.9069 18.0252 20.2651 18.3838 19.4816 18.6447C18.7148 18.8892 17.8229 19.0115 16.806 19.0115H15.0307V23.5109Z" fill="white"/>
<path d="M29.7422 20.9678C30.0256 20.9678 30.334 20.9433 30.6674 20.8944C31.0175 20.8292 31.2759 20.7477 31.4426 20.6499V18.6936L29.6422 18.8403C29.1754 18.8729 28.792 18.9707 28.492 19.1337C28.1919 19.2968 28.0419 19.5413 28.0419 19.8673C28.0419 20.1934 28.1669 20.4624 28.4169 20.6743C28.6837 20.8699 29.1254 20.9678 29.7422 20.9678ZM29.5422 11.3575C30.4424 11.3575 31.2592 11.4472 31.9927 11.6265C32.7428 11.8058 33.3763 12.0829 33.8931 12.4579C34.4265 12.8166 34.8349 13.2812 35.1183 13.8518C35.4017 14.406 35.5434 15.0663 35.5434 15.8325V21.3101C35.5434 21.734 35.4184 22.0845 35.1683 22.3616C34.9349 22.6225 34.6515 22.8507 34.3181 23.0463C33.2346 23.6821 31.7093 24 29.7422 24C28.8587 24 28.0585 23.9185 27.3417 23.7555C26.6416 23.5924 26.0331 23.3479 25.5164 23.0219C25.0163 22.6958 24.6245 22.2801 24.3411 21.7747C24.0744 21.2694 23.941 20.6825 23.941 20.0141C23.941 18.8892 24.2828 18.0252 24.9662 17.422C25.6497 16.8188 26.7083 16.4438 28.1419 16.2971L31.4176 15.9548V15.7836C31.4176 15.3108 31.2008 14.9766 30.7674 14.781C30.3507 14.5691 29.7422 14.4631 28.9421 14.4631C28.3086 14.4631 27.6918 14.5283 27.0917 14.6587C26.4916 14.7891 25.9498 14.9522 25.4663 15.1478C25.2496 15.0011 25.0663 14.781 24.9162 14.4876C24.7662 14.1778 24.6912 13.8599 24.6912 13.5339C24.6912 13.11 24.7912 12.7758 24.9913 12.5313C25.208 12.2704 25.533 12.0503 25.9665 11.871C26.4499 11.6917 27.0167 11.5613 27.6668 11.4798C28.3336 11.3982 28.9587 11.3575 29.5422 11.3575Z" fill="white"/>
<path d="M37.9689 8.42305C37.9689 7.80356 38.1772 7.28188 38.594 6.85802C39.0274 6.43416 39.5942 6.22223 40.2943 6.22223C40.9945 6.22223 41.5529 6.43416 41.9697 6.85802C42.4031 7.28188 42.6198 7.80356 42.6198 8.42305C42.6198 9.04255 42.4031 9.56422 41.9697 9.98809C41.5529 10.4119 40.9945 10.6239 40.2943 10.6239C39.5942 10.6239 39.0274 10.4119 38.594 9.98809C38.1772 9.56422 37.9689 9.04255 37.9689 8.42305ZM42.4198 23.5843C42.2364 23.6169 41.9613 23.6577 41.5946 23.7066C41.2445 23.7718 40.8861 23.8044 40.5194 23.8044C40.1526 23.8044 39.8192 23.7799 39.5192 23.731C39.2358 23.6821 38.9941 23.5843 38.794 23.4376C38.594 23.2909 38.4356 23.0952 38.3189 22.8507C38.2189 22.5898 38.1689 22.2556 38.1689 21.8481V11.8955C38.3523 11.8629 38.619 11.8221 38.9691 11.7732C39.3358 11.708 39.7025 11.6754 40.0693 11.6754C40.436 11.6754 40.7611 11.6998 41.0445 11.7487C41.3445 11.7977 41.5946 11.8955 41.7946 12.0422C41.9947 12.1889 42.1447 12.3927 42.2447 12.6535C42.3614 12.8981 42.4198 13.2241 42.4198 13.6317V23.5843Z" fill="white"/>
<defs>
<linearGradient id="paint0_linear_754_5076" x1="0" y1="0" x2="55" y2="32" gradientUnits="userSpaceOnUse">
<stop stop-color="#7318E8"/>
<stop offset="1" stop-color="#E85F63"/>
</linearGradient>
</defs>
</svg>
