<svg width="32" height="32" viewBox="0 0 32 32" fill="none" xmlns="http://www.w3.org/2000/svg">
<g clip-path="url(#clip0_754_3725)">
<path d="M26.5518 4.69145L24.5596 2.44785C24.0918 1.94975 23.3213 1.85745 22.7471 2.22565L19.9912 4.16705L17.2295 2.24175C16.7529 1.92245 16.1279 1.92245 15.6514 2.24175L12.8926 4.16705L10.1445 2.22565C9.5703 1.85745 8.8135 1.95075 8.3467 2.44785L6.3857 4.69145C6.1377 4.95415 6 5.30185 6 5.66265V28.5273C6 29.1787 6.4443 29.7461 7.0771 29.9033C7.2471 29.9453 11.3252 30.9375 16.4141 30.9375C21.501 30.9375 25.6846 29.9463 25.8574 29.9043C26.4912 29.749 27 29.1807 27 28.5273V5.66265C27 5.30185 26.7998 4.95415 26.5518 4.69145ZM11 16V14H22V16H11ZM22 18V20H11V18H22ZM11 12V10H22V12H11ZM11 22H22V24H11V22Z" fill="#8A898E"/>
</g>
<defs>
<clipPath id="clip0_754_3725">
<rect width="32" height="32" fill="white"/>
</clipPath>
</defs>
</svg>
