<svg width="80" height="80" viewBox="0 0 80 80" fill="none" xmlns="http://www.w3.org/2000/svg">
<path d="M40.0195 0C17.9192 0 0 17.9037 0 40C0 62.0939 17.9192 80 40.0195 80C62.1093 80 80 62.0939 80 40C80 17.9037 62.1093 0 40.0195 0ZM39.9973 12.5728C43.2384 12.5728 46.0925 15.6016 46.0925 18.7733C46.0925 21.9635 43.2384 24.7605 39.9973 24.7605C36.7592 24.7605 33.9051 21.9635 33.9051 18.7733C33.9051 15.6016 36.7592 12.5728 39.9973 12.5728ZM48.5339 61.3333C48.5339 62.7995 47.3333 64 45.8672 64C44.9557 64 44.1421 64 43.3864 64C37.9984 64 36.4035 64 36.6168 64C35.86 64 35.0456 64 34.1328 64C32.6667 64 31.4661 62.7995 31.4661 61.3333V58.6667C31.4661 57.2005 32.6667 56 34.1328 56V40C32.6667 40 31.4661 38.7995 31.4661 37.3333V34.6667C31.4661 33.2005 32.6667 32 34.1328 32C44.1472 32 37.2389 32 43.2267 32C44.6928 32 45.8933 33.2005 45.8933 34.6667L45.8672 56C47.3333 56 48.5339 57.2005 48.5339 58.6667V61.3333Z" fill="#8A898E"/>
</svg>
